<?xml version="1.0" encoding="utf-8"?>
<!-- Generator: Adobe Illustrator 19.2.0, SVG Export Plug-In . SVG Version: 6.00 Build 0)  -->
<svg version="1.1" id="Layer_1" xmlns="http://www.w3.org/2000/svg" xmlns:xlink="http://www.w3.org/1999/xlink" x="0px" y="0px"
	 viewBox="0 0 104 100" style="enable-background:new 0 0 104 100;" xml:space="preserve">
<style type="text/css">
	.st0{fill:#FFFFFF;}
	.st1{fill:#4878BC;}
</style>
<path class="st0" d="M92,0H12C5.4,0,0,5.4,0,12v56c0,6.6,5.4,12,12,12h56l20,20V80h4c6.6,0,12-5.4,12-12V12C104,5.4,98.6,0,92,0z"/>
<path class="st1" d="M40,44c-6.6,0-12,5.4-12,12s5.4,12,12,12s12-5.4,12-12c0-2.8-1-5.4-2.6-7.4l-9.5,7.9l7.4-10
	C45.3,45,42.8,44,40,44z"/>
<path class="st1" d="M92,0H12C5.4,0,0,5.4,0,12v56c0,6.6,5.4,12,12,12h13.5l0,0C17.4,75.1,12,66.2,12,56c0-15.5,12.5-28,28-28
	c6.3,0,12.2,2.1,16.8,5.7l2.6-3.5c-1.5-2.5-2.4-5.3-2.4-8.4c0-8.8,7.2-16,16-16S89,13,89,21.9c0,8.8-7.2,16-16,16
	c-2.9,0-5.6-0.9-7.9-2.2l-3.3,2.7C65.7,43.2,68,49.3,68,56c0,10.2-5.4,19.1-13.5,24H68l20,20V80h4c6.6,0,12-5.4,12-12V12
	C104,5.4,98.6,0,92,0z"/>
<path class="st1" d="M40,32c-13.3,0-24,10.7-24,24s10.7,24,24,24s24-10.7,24-24c0-5.7-2-10.9-5.4-15l-7.7,6.4
	c1.9,2.4,3.1,5.3,3.1,8.6c0,7.7-6.3,14-14,14s-14-6.3-14-14s6.3-14,14-14c3.2,0,6.1,1.1,8.5,3l6-8.1C50.4,33.8,45.4,32,40,32z"/>
</svg>
