<?xml version="1.0" encoding="utf-8"?>
<!-- Generator: Adobe Illustrator 19.2.0, SVG Export Plug-In . SVG Version: 6.00 Build 0)  -->
<svg version="1.1" id="Vector_Logo" xmlns="http://www.w3.org/2000/svg" xmlns:xlink="http://www.w3.org/1999/xlink" x="0px"
	 y="0px" viewBox="0 0 1112 124" style="enable-background:new 0 0 1112 124;" xml:space="preserve">
<style type="text/css">
	.st0{fill:#28566C;}
</style>
<path id="path144" class="st0" d="M62,0C27.8,0,0,27.8,0,62c0,34.3,27.8,62,62,62c34.2,0,62-27.7,62-62C124,28,96.7,0,62,0z
	 M44.5,17.5l17.4,57.4L62,75l0.1-0.1l17.4-57.4l22.4,73.6h-4.2c0,0-2.8-12.9-7.4-20.5c-2.5-4.1-6.3-7.4-11.5-7.3
	c-3.7,0.1-6.9,1.9-10.8,7.4c-2.4,3.3-6,11.7-6,11.7s-3.6-8.4-6-11.7c-4-5.5-7.1-7.3-10.7-7.4c-5.2-0.1-9.1,3.2-11.6,7.3
	c-4.6,7.7-7.4,20.5-7.4,20.5h-4.2L44.5,17.5L44.5,17.5z M278.1,39.8c-3.2,0-6.9,0.5-9.7,1.1c-12.4,2.5-27.9,13.5-25.1,27.8
	c2.3,12,18.5,18.5,36.8,14.9c17.2-3.3,28.4-16.5,26.1-28.1C303.6,44.1,290.2,39.8,278.1,39.8L278.1,39.8z M397.9,39.8
	c-3.2,0-7,0.5-9.9,1.1c-12.3,2.5-27.9,13.5-25.2,27.8c2.3,12,18.7,18.5,37,14.9c17.1-3.3,28.2-16.5,25.8-28.1
	C423.4,44.1,410.1,39.8,397.9,39.8z M528.2,39.8c-3.3,0-6.8,0.5-9.9,1.1c-12.2,2.5-27.8,13.5-25.1,27.8c2.3,12,18.5,18.5,36.8,14.9
	c17.2-3.3,28.4-16.5,26-28.1C553.6,44.1,540.2,39.8,528.2,39.8z M714.9,40c-11.4,0-19.5,4.7-21.7,12.8c-0.3,1.1-0.5,2.1-0.5,3.1
	c0,6.5,7.1,7.8,14,8.7c6.9,0.8,13.6,1.4,13.5,5.4c0,0.4,0,0.8-0.1,1.3c-1.2,4.4-6.8,7.8-15.4,7.7c-6.9,0-11-2.4-11-6.7
	c0-0.6,0.1-1.1,0.2-1.8l0.1-0.4h-6.8l-0.1,0.2c-0.2,1.1-0.2,2.1-0.2,3.1c0,7.3,5.9,10.7,16.3,10.7c12.4,0,21.2-5,23.5-13.4
	c0.3-1,0.5-2,0.5-2.9c0-3.8-2.5-6.6-7.7-7.5l-14.8-2.7c-4-0.7-5-2.2-5.1-3.9c0-0.4,0-0.8,0.1-1.2c1.2-4.5,6.9-7.4,12.8-7.4
	c6.2,0,11.1,1.3,11.2,5.9c0,0.4,0,0.9-0.1,1.3v0.2h6.7l0.1-0.1c0.2-1,0.2-1.9,0.2-2.7C730.5,42.2,722.7,40.1,714.9,40L714.9,40z
	 M767.5,40c-17.6,0-26.8,12.1-29.5,22.1c-0.6,2.1-0.9,4.2-0.9,6.3c0,4,1.2,8,4.1,10.9c2.9,2.9,7.6,4.8,14.6,4.8
	c17.6,0,26.8-12,29.5-22c0.6-2.1,0.8-4.3,0.8-6.5c0-4.1-1.1-8-4-10.9C779.1,41.9,774.4,40,767.5,40L767.5,40z M987.6,40
	c-17.6,0-26.8,12.1-29.5,22.1c-0.6,2.1-0.8,4.2-0.8,6.3c0,4,1.1,8,4,10.9c2.9,2.9,7.6,4.8,14.6,4.8c17.6,0,26.8-12,29.5-22
	c0.6-2.1,0.9-4.3,0.9-6.5c0-4.1-1.2-8-4.1-10.9C999.3,41.9,994.6,40,987.6,40z M1094.7,40c-11.4,0-19.5,4.7-21.7,12.8
	c-0.3,1.1-0.5,2.1-0.5,3.1c0,6.5,7.1,7.8,14,8.7c6.9,0.8,13.7,1.4,13.6,5.4c0,0.4-0.1,0.8-0.2,1.3c-1.2,4.4-6.7,7.7-15.3,7.7
	c-6.9,0-11.1-2.5-11.2-6.7c0-0.6,0.1-1.1,0.2-1.8l0.1-0.4h-6.8v0.2c-0.2,1.1-0.4,2.1-0.4,3.1c0,7.3,5.9,10.7,16.3,10.7
	c12.4,0,21.2-5,23.5-13.4c0.3-1,0.5-2,0.5-2.9c0-3.8-2.5-6.6-7.8-7.5l-14.8-2.7c-3.9-0.7-5-2.2-5-3.9c0-0.4,0.1-0.8,0.2-1.2
	c1.2-4.4,6.8-7.4,12.7-7.4c6.2,0,11.1,1.3,11.2,5.9c0,0.4,0,0.8-0.1,1.3v0.2h6.8v-0.1c0.2-1,0.4-1.9,0.4-2.7
	C1110.5,42.2,1102.5,40.1,1094.7,40L1094.7,40z M801.3,41.1l-0.1,0.2L790,83.1h37.7L829,78h-31.2l10-36.9H801.3L801.3,41.1z
	 M1021.3,41.1l-11.3,42h6.5l9.4-35.1l15.9,35.1h8.5l11.3-42h-6.5v0.2l-9.4,35l-15.9-35.2H1021.3z M843.9,41.2l-6.7,24.9
	c-0.5,2.1-0.8,3.9-0.8,5.6c0,8.3,6.2,12.4,15.6,12.4c11.4,0,21.1-6,24.3-18l6.8-25h-6.5l-0.1,0.1l-6.7,25.1
	c-2.1,7.8-8.1,12.6-16.6,12.6c-6.9,0-10.3-3-10.3-8.3c0-1.3,0.2-2.6,0.6-4.1l6.8-25.4H843.9L843.9,41.2z M893.2,41.2l-1.5,5.5h17.6
	l-9.7,36.4h6.5l9.7-36.4h17.6l1.5-5.5H893.2L893.2,41.2z M945.4,41.2v0.1l-11.3,41.8h6.5l11.3-41.9H945.4L945.4,41.2z M219.1,41.3
	l-15.3,17.8l-5.3-17.6h-20.9l-12.2,41.3h13.2l6.7-22.8l6,22.8h8.5l19.4-21.4l-6.2,21.4h16.8l11.6-41.6H219.1z M313.2,41.3L309.8,55
	h17.4l-6.7,27.9h16.2l7.3-28.1h17.7l3.1-13.3L313.2,41.3L313.2,41.3z M633.3,41.3l-28.1,41.6h14l4.8-7.2l0.1-0.2h19.8v0.2l1.8,7.2
	H662l-9.4-41.6H633.3L633.3,41.3z M438.3,41.6l-11.9,41.3h15.4l3.5-12.4l12.3,0.2c4.5-0.5,4.7,2.7,4.7,2.7s-0.2,2.8-0.5,5.8
	c-0.2,3.2,2.9,3.8,2.9,3.8h16.7c-1.3-1.1-1.4-3.2-1.4-4.6c0-1,1.7-3.6,1.2-7.5c-0.4-3.5-4.3-4.3-4.8-4.8c-0.5-0.2,0.1-0.8,0.1-0.8
	s10.5-3,11.5-12.9c1.2-9.9-10.2-10.7-10.2-10.7H438.3L438.3,41.6z M568.1,41.6l-10.7,41.3h41.8l2.9-11.4h-25.8l7.6-29.9H568.1z
	 M766.2,45.2c8.2,0,12.9,4.6,12.9,11.7c0,1.6-0.2,3.3-0.7,5.2C775.7,72.3,767,79,757,79c-8.2,0-13-4.4-13-11.6
	c0-1.6,0.3-3.3,0.8-5.2C747.5,52.1,756.2,45.2,766.2,45.2z M986.4,45.2c8.2,0,13,4.6,13,11.7c0,1.6-0.3,3.3-0.8,5.2
	C995.8,72.3,987.2,79,977.2,79c-8.2,0-12.9-4.4-12.9-11.6c0-1.6,0.2-3.3,0.7-5.2C967.7,52.1,976.4,45.2,986.4,45.2z M526.1,50.5
	c0.6,0,1.3,0,2,0c5,0.4,9.9,2.5,10.7,6.3c2.3,11.4-9.8,16.2-8.5,15.5c-7,3.6-17.8,2.4-19-4.8c-1.3-6.9,4.1-13.9,8.6-15.5
	C522.7,51,524.2,50.6,526.1,50.5z M276.2,50.6c0.6,0,1.2,0,1.8,0.1c5,0,10,2.3,10.7,6.1c2.4,11.4-9.8,16.2-8.2,15.5
	c-7.1,3.6-17.9,2.4-19.1-4.8c-1.3-6.9,4.2-13.9,8.7-15.5C272.3,51.2,274.3,50.7,276.2,50.6L276.2,50.6z M396,50.6
	c0.6,0,1.3,0,1.9,0.1c4.9,0,9.9,2.3,10.6,6.1c2.5,11.4-9.7,16.2-8.2,15.5c-7.1,3.6-18,2.4-19.1-4.8c-1.2-6.9,4.2-13.9,8.7-15.5
	C392,51.2,394.1,50.7,396,50.6L396,50.6z M451.4,51.1l17.1,0.1c0,0,3.3-0.2,3.1,3.2c-0.2,3.9-4.5,4.7-4.5,4.7h-17.7L451.4,51.1z
	 M638.8,53.5l2.8,12.2h-0.2h-10.6h-0.2L638.8,53.5z"/>
</svg>
