<?xml version="1.0" encoding="utf-8"?>
<!-- Generator: Adobe Illustrator 19.2.0, SVG Export Plug-In . SVG Version: 6.00 Build 0)  -->
<svg version="1.1" id="Layer_1" xmlns="http://www.w3.org/2000/svg" xmlns:xlink="http://www.w3.org/1999/xlink" x="0px" y="0px"
	 viewBox="0 0 154 41" style="enable-background:new 0 0 154 41;" xml:space="preserve">
<style type="text/css">
	.st0{fill:#ffffff;}
</style>
<g>
	<path class="st0" d="M60.5,12.1c-1.8-0.7-2.8-1-4.5-1c-2,0-4.2,0.7-4.2,3.2c0,4.6,10.4,3.5,10.4,11.6c0,5.2-4,7.2-8.8,7.2
		c-1.7,0-3.3-0.5-4.9-1l0.4-3.2c1.2,0.5,3.2,1.2,5,1.2c2,0,4.7-1.1,4.7-3.9c0-5.4-10.4-3.9-10.4-11.5c0-4.3,3.4-6.6,7.8-6.6
		c1.6,0,3.5,0.3,5.2,0.9L60.5,12.1z"/>
	<path class="st0" d="M72.9,14.5c5.4,0,8.9,3.9,8.9,9.2c0,5.1-3.6,9.2-8.9,9.2c-5.3,0-9-4.2-9-9.2C63.9,18.3,67.5,14.5,72.9,14.5
		 M72.9,30.3c3.8,0,5.5-3.4,5.5-6.6c0-3.3-2.1-6.6-5.5-6.6c-3.5,0-5.5,3.2-5.5,6.6C67.3,26.9,69.1,30.3,72.9,30.3"/>
	<path class="st0" d="M95.9,17.9c-1.3-0.5-2.5-0.8-3.5-0.8c-3.6,0-5.7,3.2-5.7,6.6c0,3.1,1.7,6.6,5.9,6.6c1.1,0,2.5-0.4,3.5-1
		l0.2,2.9c-1.4,0.6-2.9,0.7-4.1,0.7c-5.3,0-9-4.2-9-9.2c0-5.4,3.6-9.2,9-9.2c1.3,0,3,0.3,3.9,0.7L95.9,17.9z"/>
	<path class="st0" d="M98.6,14.9h3v2.7h0.1c0.9-1.9,2.8-3.1,4.6-3.1c1,0,1.5,0.1,2.2,0.2v2.9c-0.6-0.2-1.3-0.3-1.8-0.3
		c-2.9,0-4.8,2.7-4.8,7.2v8h-3.2L98.6,14.9L98.6,14.9z"/>
	<path class="st0" d="M111.3,16.2c1.7-1,3.5-1.7,5.8-1.7c5.1,0,7.1,2.5,7.1,7.4v7.4c0,2,0.1,2.9,0.1,3.4h-3v-2.3h-0.1
		c-0.8,1.1-2.5,2.7-5.5,2.7c-3.8,0-6.5-1.7-6.5-5.5c0-4.4,4.8-5.8,8.3-5.8c1.3,0,2.2,0,3.4,0.1c0-3-1.1-4.6-4.3-4.6
		c-1.9,0-3.8,0.7-5.1,1.8L111.3,16.2z M121,24.1c-0.7,0-1.4-0.1-2.1-0.1c-1.8,0-6.1,0.3-6.1,3.4c0,1.9,1.8,2.8,3.3,2.8
		c3.2,0,4.9-2,4.9-4.6L121,24.1L121,24.1z"/>
	<path class="st0" d="M137.6,17.6h-4.7v9.7c0,2.1,1.3,3.1,2.8,3.1c1,0,1.8-0.3,2.3-0.6v2.7c-0.7,0.2-1.8,0.5-2.8,0.5
		c-3.3,0-5.4-1.6-5.4-5.1V17.6h-4v-2.6h4v-4.1l3.2-1.1v5.1h4.7L137.6,17.6L137.6,17.6z"/>
	<path class="st0" d="M141,16.2c1.7-1,3.5-1.7,5.8-1.7c5.1,0,7.1,2.5,7.1,7.4v7.4c0,2,0.1,2.9,0.1,3.4h-3v-2.3h-0.1
		c-0.8,1.1-2.5,2.7-5.5,2.7c-3.8,0-6.5-1.7-6.5-5.5c0-4.4,4.8-5.8,8.3-5.8c1.3,0,2.2,0,3.4,0.1c0-3-1.1-4.6-4.3-4.6
		c-1.9,0-3.8,0.7-5.1,1.8L141,16.2z M150.7,24.1c-0.7,0-1.4-0.1-2.1-0.1c-1.8,0-6.1,0.3-6.1,3.4c0,1.9,1.8,2.8,3.3,2.8
		c3.2,0,4.9-2,4.9-4.6L150.7,24.1L150.7,24.1z"/>
	<path class="st0" d="M38.9,12.1l-0.5,0.2l-2.3,1.1c1,2.2,1.6,4.6,1.6,7.3C37.7,30.2,30,38,20.3,38S2.9,30.2,2.9,20.6
		C3,11.1,10.8,3.2,20.4,3.2c2,0,3.9,0.4,5.7,1L27,1.9l0.2-0.5c-2.1-0.8-4.4-1.2-6.8-1.2C9.1,0.2,0,9.3,0,20.6S9.1,41,20.4,41
		s20.4-9.1,20.4-20.4C40.9,17.6,40.2,14.7,38.9,12.1z"/>
	<path class="st0" d="M25.2,7.2c-1.5-0.5-3-0.8-4.7-0.8C12.5,6.4,6,12.8,6,20.6s6.5,14.2,14.4,14.2s14.4-6.4,14.4-14.2
		c0-2.2-0.5-4.1-1.4-6L33,14.8L30.8,16c0.7,1.4,1.1,2.9,1.1,4.6c0,6.2-5.1,11.1-11.4,11.1S9,26.7,9,20.6c0-6.2,5.1-11.1,11.4-11.1
		c1.3,0,2.6,0.2,3.7,0.6l0.9-2.5L25.2,7.2z"/>
	<path class="st0" d="M20.4,25.9c-3,0-5.5-2.5-5.5-5.5s2.5-5.5,5.5-5.5c0.7,0,1.3,0.1,1.9,0.4l1-2.8c-0.9-0.3-1.9-0.5-2.9-0.5
		c-4.7,0-8.5,3.8-8.5,8.4c0,4.7,3.8,8.4,8.5,8.4c4.7,0,8.5-3.8,8.5-8.4l0,0c0-1.2-0.2-2.3-0.7-3.2l-2.8,1.3c0.2,0.6,0.4,1.3,0.4,2
		C25.8,23.4,23.5,25.9,20.4,25.9z"/>
	<path class="st0" d="M24.7,16.1L40,8.8C37.6,5,34.3,2,30.3,0L24.7,16.1z"/>
</g>
</svg>
